<svg width="124" height="16" viewBox="0 0 124 16" fill="none" xmlns="http://www.w3.org/2000/svg">
<path fill-rule="evenodd" clip-rule="evenodd" d="M16.1483 6.00065C16.1483 5.76161 15.9675 5.61307 15.6055 5.55491L10.7418 4.84766L8.56177 0.439082C8.43916 0.174235 8.28075 0.0418701 8.08702 0.0418701C7.89329 0.0418701 7.735 0.174235 7.61227 0.439082L5.43212 4.84766L0.568174 5.55491C0.206521 5.61307 0.0256348 5.76161 0.0256348 6.00065C0.0256348 6.13634 0.106385 6.29142 0.267887 6.46577L3.79475 9.89571L2.96156 14.7403C2.94859 14.8308 2.94217 14.8955 2.94217 14.9341C2.94217 15.0698 2.97606 15.1843 3.04385 15.2782C3.11164 15.3719 3.21332 15.4186 3.34902 15.4186C3.46533 15.4186 3.59448 15.3801 3.7366 15.3024L8.0869 13.0156L12.4376 15.3024C12.5734 15.38 12.7025 15.4186 12.825 15.4186C12.9545 15.4186 13.0529 15.372 13.1207 15.2782C13.1883 15.1845 13.2222 15.0698 13.2222 14.9341C13.2222 14.8502 13.219 14.7856 13.2125 14.7403L12.3792 9.89571L15.8963 6.46577C16.0644 6.29784 16.1483 6.14276 16.1483 6.00065Z" fill="#F2C94C"/>
<path fill-rule="evenodd" clip-rule="evenodd" d="M43.1048 6.00065C43.1048 5.76161 42.9241 5.61307 42.5621 5.55491L37.6983 4.84766L35.5183 0.439082C35.3957 0.174235 35.2373 0.0418701 35.0436 0.0418701C34.8498 0.0418701 34.6915 0.174235 34.5688 0.439082L32.3887 4.84766L27.5247 5.55491C27.1631 5.61307 26.9822 5.76161 26.9822 6.00065C26.9822 6.13634 27.0629 6.29142 27.2244 6.46577L30.7513 9.89571L29.9181 14.7403C29.9051 14.8308 29.8987 14.8955 29.8987 14.9341C29.8987 15.0698 29.9326 15.1843 30.0004 15.2782C30.0682 15.3719 30.1699 15.4186 30.3056 15.4186C30.4219 15.4186 30.551 15.3801 30.6931 15.3024L35.0434 13.0156L39.3941 15.3024C39.5299 15.38 39.6591 15.4186 39.7816 15.4186C39.9111 15.4186 40.0094 15.372 40.0772 15.2782C40.1449 15.1845 40.1788 15.0698 40.1788 14.9341C40.1788 14.8502 40.1756 14.7856 40.169 14.7403L39.3357 9.89571L42.8528 6.46577C43.021 6.29784 43.1048 6.14276 43.1048 6.00065Z" fill="black"/>
<path fill-rule="evenodd" clip-rule="evenodd" d="M70.0614 6.00065C70.0614 5.76161 69.8806 5.61307 69.5186 5.55491L64.6549 4.84766L62.4749 0.439082C62.3522 0.174235 62.1938 0.0418701 62.0001 0.0418701C61.8064 0.0418701 61.6481 0.174235 61.5254 0.439082L59.3452 4.84766L54.4813 5.55491C54.1196 5.61307 53.9387 5.76161 53.9387 6.00065C53.9387 6.13634 54.0195 6.29142 54.181 6.46577L57.7078 9.89571L56.8746 14.7403C56.8617 14.8308 56.8553 14.8955 56.8553 14.9341C56.8553 15.0698 56.8892 15.1843 56.9569 15.2782C57.0247 15.3719 57.1264 15.4186 57.2621 15.4186C57.3784 15.4186 57.5076 15.3801 57.6497 15.3024L62 13.0156L66.3506 15.3024C66.4865 15.38 66.6156 15.4186 66.7381 15.4186C66.8676 15.4186 66.966 15.372 67.0338 15.2782C67.1014 15.1845 67.1353 15.0698 67.1353 14.9341C67.1353 14.8502 67.1321 14.7856 67.1256 14.7403L66.2923 9.89571L69.8094 6.46577C69.9775 6.29784 70.0614 6.14276 70.0614 6.00065Z" fill="black"/>
<path fill-rule="evenodd" clip-rule="evenodd" d="M97.0179 6.00065C97.0179 5.76161 96.8371 5.61307 96.4751 5.55491L91.6114 4.84766L89.4314 0.439082C89.3088 0.174235 89.1504 0.0418701 88.9566 0.0418701C88.7629 0.0418701 88.6046 0.174235 88.4819 0.439082L86.3017 4.84766L81.4378 5.55491C81.0761 5.61307 80.8953 5.76161 80.8953 6.00065C80.8953 6.13634 80.976 6.29142 81.1375 6.46577L84.6644 9.89571L83.8312 14.7403C83.8182 14.8308 83.8118 14.8955 83.8118 14.9341C83.8118 15.0698 83.8457 15.1843 83.9135 15.2782C83.9813 15.3719 84.083 15.4186 84.2186 15.4186C84.335 15.4186 84.4641 15.3801 84.6062 15.3024L88.9565 13.0156L93.3072 15.3024C93.443 15.38 93.5722 15.4186 93.6947 15.4186C93.8242 15.4186 93.9225 15.372 93.9903 15.2782C94.058 15.1845 94.0919 15.0698 94.0919 14.9341C94.0919 14.8502 94.0887 14.7856 94.0821 14.7403L93.2488 9.89571L96.7659 6.46577C96.9341 6.29784 97.0179 6.14276 97.0179 6.00065Z" fill="black"/>
<path fill-rule="evenodd" clip-rule="evenodd" d="M123.974 6.00065C123.974 5.76161 123.794 5.61307 123.432 5.55491L118.568 4.84766L116.388 0.439082C116.265 0.174235 116.107 0.0418701 115.913 0.0418701C115.719 0.0418701 115.561 0.174235 115.438 0.439082L113.258 4.84766L108.394 5.55491C108.033 5.61307 107.852 5.76161 107.852 6.00065C107.852 6.13634 107.933 6.29142 108.094 6.46577L111.621 9.89571L110.788 14.7403C110.775 14.8308 110.768 14.8955 110.768 14.9341C110.768 15.0698 110.802 15.1843 110.87 15.2782C110.938 15.3719 111.039 15.4186 111.175 15.4186C111.291 15.4186 111.421 15.3801 111.563 15.3024L115.913 13.0156L120.264 15.3024C120.4 15.38 120.529 15.4186 120.651 15.4186C120.781 15.4186 120.879 15.372 120.947 15.2782C121.015 15.1845 121.048 15.0698 121.048 14.9341C121.048 14.8502 121.045 14.7856 121.039 14.7403L120.205 9.89571L123.722 6.46577C123.891 6.29784 123.974 6.14276 123.974 6.00065Z" fill="black"/>
</svg>
