<svg width="64" height="64" viewBox="0 0 64 64" fill="none" xmlns="http://www.w3.org/2000/svg">
<path d="M0 2.86618H44C55.0457 2.86618 64 11.8205 64 22.8662V64H20C8.95431 64 0 55.0457 0 44V2.86618Z" fill="#3E98E1"/>
<path d="M0 2.86619C0 2.86619 39.04 -5.99821 51.2 7.45122C63.36 20.9007 64 64 64 64H20C8.9543 64 0 55.0457 0 44V2.86619Z" fill="#1B73BA"/>
<path d="M0 26.097C0 26.097 36.1736 13.8702 41.28 36.7954C46.3864 59.7206 63.04 64 63.04 64H20C8.95429 64 0 55.0457 0 44V26.097Z" fill="#165487"/>
</svg>
