<svg width="18" height="24" viewBox="0 0 18 24" fill="none" xmlns="http://www.w3.org/2000/svg">
<mask id="path-1-inside-1" fill="white">
<path fill-rule="evenodd" clip-rule="evenodd" d="M14.9676 15.7372C16.8276 14.0884 18 11.6811 18 9C18 4.02944 13.9706 0 9 0C4.02944 0 0 4.02944 0 9C0 11.6811 1.17237 14.0884 3.03242 15.7372L9.00002 24L14.9676 15.7372Z"/>
</mask>
<path d="M14.9676 15.7372L13.6409 14.2405L13.4756 14.3871L13.3462 14.5662L14.9676 15.7372ZM3.03242 15.7372L4.65378 14.5662L4.52442 14.3871L4.35909 14.2405L3.03242 15.7372ZM9.00002 24L7.37866 25.171L9.00002 27.4159L10.6214 25.171L9.00002 24ZM16 9C16 11.0851 15.0909 12.9552 13.6409 14.2405L16.2943 17.2338C18.5644 15.2216 20 12.2772 20 9H16ZM9 2C12.866 2 16 5.13401 16 9H20C20 2.92487 15.0751 -2 9 -2V2ZM2 9C2 5.13401 5.13401 2 9 2V-2C2.92487 -2 -2 2.92487 -2 9H2ZM4.35909 14.2405C2.9091 12.9552 2 11.0851 2 9H-2C-2 12.2772 -0.564366 15.2216 1.70576 17.2338L4.35909 14.2405ZM10.6214 22.829L4.65378 14.5662L1.41107 16.9082L7.37866 25.171L10.6214 22.829ZM13.3462 14.5662L7.37866 22.829L10.6214 25.171L16.5889 16.9082L13.3462 14.5662Z" fill="#959595" mask="url(#path-1-inside-1)"/>
<circle cx="9" cy="9" r="3" fill="#959595"/>
</svg>
