<svg width="52" height="52" viewBox="0 0 52 52" fill="none" xmlns="http://www.w3.org/2000/svg">
<path fill-rule="evenodd" clip-rule="evenodd" d="M48.1479 13.0405C45.8405 9.02884 42.7104 5.85282 38.7572 3.51161C34.8031 1.1704 30.4865 0 25.8046 0C21.123 0 16.8052 1.17082 12.852 3.51161C8.89832 5.85282 5.76821 9.02884 3.46085 13.0405C1.15348 17.0521 0 21.4329 0 26.1827C0 31.8878 1.64052 37.0184 4.92239 41.5752C8.20384 46.1321 12.4429 49.2856 17.6395 51.0355C18.2445 51.1493 18.6924 51.0694 18.9835 50.7974C19.2747 50.5246 19.4202 50.1835 19.4202 49.7747C19.4202 49.7065 19.4145 49.0931 19.4033 47.934C19.3918 46.7745 19.3864 45.7631 19.3864 44.9002L18.6136 45.0358C18.1208 45.1274 17.4993 45.1664 16.7487 45.1551C15.9986 45.1446 15.22 45.0647 14.4137 44.9165C13.6071 44.7693 12.8569 44.4286 12.1625 43.8947C11.4684 43.3603 10.9756 42.6611 10.6844 41.7979L10.3483 41.0133C10.1244 40.4911 9.77178 39.9111 9.2901 39.275C8.80841 38.6386 8.32137 38.2067 7.82856 37.9795L7.59349 37.8092C7.43678 37.6954 7.2912 37.5586 7.15676 37.3996C7.02232 37.2406 6.92169 37.0815 6.85447 36.9221C6.78725 36.7631 6.84292 36.6321 7.02232 36.5296C7.20171 36.4271 7.52627 36.3769 7.99682 36.3769L8.66861 36.479C9.11648 36.5698 9.67074 36.8422 10.3318 37.297C10.9925 37.7515 11.5356 38.3423 11.9612 39.0692C12.4767 40.0015 13.0978 40.7116 13.8261 41.2003C14.5539 41.6891 15.2876 41.933 16.0266 41.933C16.7656 41.933 17.404 41.8761 17.9418 41.7627C18.4792 41.6493 18.9831 41.4786 19.4537 41.2514C19.6553 39.7282 20.2042 38.5578 21.0999 37.7398C19.8232 37.6033 18.6755 37.3983 17.656 37.1259C16.637 36.8531 15.5841 36.4099 14.4979 35.7957C13.4112 35.1822 12.5097 34.4206 11.7929 33.5118C11.0762 32.6025 10.4881 31.4091 10.0291 29.932C9.57011 28.4544 9.34041 26.7501 9.34041 24.8181C9.34041 22.0677 10.2254 19.7269 11.995 17.7949C11.1661 15.7269 11.2445 13.4087 12.2301 10.8403C12.8796 10.6357 13.843 10.7892 15.1198 11.3006C16.3965 11.8119 17.3314 12.25 17.9253 12.6133C18.5192 12.9765 18.9951 13.284 19.3534 13.5338C21.4369 12.943 23.5871 12.6476 25.8046 12.6476C28.0221 12.6476 30.1727 12.943 32.2566 13.5338L33.5333 12.7158C34.4064 12.1701 35.4374 11.6701 36.6239 11.2156C37.8111 10.7612 38.7188 10.6361 39.3461 10.8407C40.354 13.4091 40.4435 15.7273 39.6146 17.7953C41.3842 19.7273 42.2692 22.0685 42.2692 24.8185C42.2692 26.7505 42.0391 28.4603 41.5805 29.9491C41.1211 31.4384 40.528 32.6309 39.8001 33.5289C39.0718 34.4269 38.1646 35.1826 37.0783 35.7961C35.9916 36.4099 34.9388 36.8531 33.9198 37.1259C32.9003 37.3987 31.7526 37.6038 30.4758 37.7402C31.6404 38.7629 32.2227 40.3764 32.2227 42.5812V49.7739C32.2227 50.1827 32.363 50.5237 32.643 50.7962C32.923 51.0686 33.3651 51.1485 33.9701 51.0347C39.1671 49.2847 43.4062 46.1313 46.6876 41.574C49.9691 37.0175 51.61 31.8869 51.61 26.1814C51.6088 21.4325 50.4545 17.0521 48.1479 13.0405Z" fill="black"/>
</svg>
