<svg width="24" height="13" viewBox="0 0 24 13" fill="none" xmlns="http://www.w3.org/2000/svg">
<path d="M2.83488 3.59039L1.24397 8.59039C0.628338 10.5252 2.16188 12.4423 3.89672 11.3873C4.38845 11.0883 4.82175 10.7517 5.18772 10.4071C6.19003 9.46352 7.46573 8.5 8.84233 8.5H15.7371C17.0765 8.5 18.2004 9.4695 19.1273 10.4364C19.2915 10.6076 19.4659 10.7663 19.6477 10.9133C21.2523 12.2106 23.0227 10.3998 22.5654 8.38779L21.5307 3.83514C21.2203 2.46927 20.006 1.5 18.6053 1.5H5.69365C4.38722 1.5 3.23099 2.34545 2.83488 3.59039Z" stroke="#959595" stroke-width="2"/>
<circle cx="6" cy="5" r="2" fill="#959595"/>
<circle cx="18" cy="5" r="2" fill="#959595"/>
</svg>
