<svg width="57" height="57" viewBox="0 0 57 57" fill="none" xmlns="http://www.w3.org/2000/svg">
<path d="M7.125 11.875C7.125 9.25181 9.25181 7.125 11.875 7.125H45.125C47.7482 7.125 49.875 9.25181 49.875 11.875V45.125C49.875 47.7482 47.7482 49.875 45.125 49.875H11.875C9.25181 49.875 7.125 47.7482 7.125 45.125V11.875Z" fill="#2196F3"/>
<path d="M32.0625 20.1875H40.375V22.5625H32.0625V20.1875ZM25.5455 27.8207C26.2402 27.4823 27.8053 26.7116 27.8053 24.4281C27.8053 20.1329 23.1123 20.1887 22.2443 20.1887H14.25V36.8137H22.5922C23.2869 36.8125 28.5 36.6166 28.5 32.0613C28.5 29.1223 26.5881 28.1604 25.5455 27.8207ZM17.8125 23.0707H21.2895C21.6362 23.0707 23.8961 23.1942 23.8961 24.9375C23.8961 26.6796 22.1588 26.9729 21.6374 26.9729H17.8125V23.0707ZM21.774 33.9281H17.7757V29.3491H21.774C22.6421 29.3491 24.5539 29.6305 24.5539 31.7241C24.5539 33.8153 22.1208 33.9281 21.774 33.9281ZM38.5201 33.7191C37.9679 34.0623 37.4169 34.2368 36.6807 34.2368C33.9186 34.2368 33.3687 31.9081 33.3687 30.8762H42.75C42.75 29.8442 42.75 29.0819 42.5659 28.2209C42.3807 27.36 41.1231 23.75 36.4966 23.75C30.0307 23.75 29.6875 29.4239 29.6875 30.2812C29.6875 31.1398 29.8727 32.1729 30.2421 32.8593C30.609 33.7191 30.9771 34.4078 31.5293 34.9208C32.0803 35.4374 32.8154 35.9492 33.5516 36.2947C34.4707 36.6403 35.3911 36.8125 36.3114 36.8125C37.7815 36.8125 39.0711 36.4705 40.1743 35.7817C41.2799 35.0942 42.0149 34.0622 42.5659 32.6871H39.4393C39.2552 33.0315 39.0711 33.3735 38.5201 33.7191ZM36.4966 26.1571C38.2992 26.1571 39.0711 28.0476 39.254 28.9049H33.3687C33.3687 28.7351 33.8093 26.1571 36.4966 26.1571Z" fill="white"/>
</svg>
