<svg width="57" height="57" viewBox="0 0 57 57" fill="none" xmlns="http://www.w3.org/2000/svg">
<path d="M39.1875 50.7656H17.8125C11.4285 50.7656 6.23438 45.5715 6.23438 39.1875V17.8125C6.23438 11.4285 11.4285 6.23438 17.8125 6.23438H39.1875C45.5715 6.23438 50.7656 11.4285 50.7656 17.8125V39.1875C50.7656 45.5715 45.5715 50.7656 39.1875 50.7656Z" fill="url(#paint0_linear)"/>
<path d="M28.5 40.0781C22.116 40.0781 16.9219 34.884 16.9219 28.5C16.9219 22.116 22.116 16.9219 28.5 16.9219C34.884 16.9219 40.0781 22.116 40.0781 28.5C40.0781 34.884 34.884 40.0781 28.5 40.0781ZM28.5 20.4844C24.0807 20.4844 20.4844 24.0807 20.4844 28.5C20.4844 32.9202 24.0807 36.5156 28.5 36.5156C32.9202 36.5156 36.5156 32.9202 36.5156 28.5C36.5156 24.0807 32.9202 20.4844 28.5 20.4844Z" fill="url(#paint1_linear)"/>
<path d="M40.9688 13.3594C40.2601 13.3594 39.5805 13.6409 39.0795 14.1419C38.5784 14.643 38.2969 15.3226 38.2969 16.0312C38.2969 16.7399 38.5784 17.4195 39.0795 17.9206C39.5805 18.4216 40.2601 18.7031 40.9688 18.7031C41.6774 18.7031 42.357 18.4216 42.858 17.9206C43.3591 17.4195 43.6406 16.7399 43.6406 16.0312C43.6406 15.3226 43.3591 14.643 42.858 14.1419C42.357 13.6409 41.6774 13.3594 40.9688 13.3594Z" fill="url(#paint2_linear)"/>
<defs>
<linearGradient id="paint0_linear" x1="28.5" y1="5.9378" x2="28.5" y2="51.5423" gradientUnits="userSpaceOnUse">
<stop stop-color="#1A6DFF"/>
<stop offset="1" stop-color="#C822FF"/>
</linearGradient>
<linearGradient id="paint1_linear" x1="28.5" y1="16.18" x2="28.5" y2="40.6829" gradientUnits="userSpaceOnUse">
<stop stop-color="#6DC7FF"/>
<stop offset="1" stop-color="#E6ABFF"/>
</linearGradient>
<linearGradient id="paint2_linear" x1="40.9688" y1="11.3555" x2="40.9688" y2="20.528" gradientUnits="userSpaceOnUse">
<stop stop-color="#6DC7FF"/>
<stop offset="1" stop-color="#E6ABFF"/>
</linearGradient>
</defs>
</svg>
