<svg width="24" height="24" viewBox="0 0 24 24" fill="none" xmlns="http://www.w3.org/2000/svg">
<path d="M12 4.64516C9.43548 4.64516 7.35484 6.72581 7.35484 9.29032C7.35484 11.8548 9.43548 13.9355 12 13.9355C14.5645 13.9355 16.6452 11.8548 16.6452 9.29032C16.6452 6.72581 14.5645 4.64516 12 4.64516ZM12 11.6129C10.7177 11.6129 9.67742 10.5726 9.67742 9.29032C9.67742 8.00806 10.7177 6.96774 12 6.96774C13.2823 6.96774 14.3226 8.00806 14.3226 9.29032C14.3226 10.5726 13.2823 11.6129 12 11.6129ZM12 0C5.37097 0 0 5.37097 0 12C0 18.629 5.37097 24 12 24C18.629 24 24 18.629 24 12C24 5.37097 18.629 0 12 0ZM12 21.6774C9.59516 21.6774 7.39839 20.7919 5.70484 19.3355C6.42581 18.2226 7.65968 17.4677 9.07258 17.4242C10.079 17.7339 11.0371 17.8887 12 17.8887C12.9629 17.8887 13.921 17.7387 14.9274 17.4242C16.3403 17.4726 17.5742 18.2226 18.2952 19.3355C16.6016 20.7919 14.4048 21.6774 12 21.6774V21.6774ZM19.8726 17.6081C18.6919 16.0887 16.8677 15.0968 14.7871 15.0968C14.2935 15.0968 13.529 15.5613 12 15.5613C10.4758 15.5613 9.70645 15.0968 9.2129 15.0968C7.1371 15.0968 5.3129 16.0887 4.12742 17.6081C2.99516 16.0258 2.32258 14.0903 2.32258 12C2.32258 6.6629 6.6629 2.32258 12 2.32258C17.3371 2.32258 21.6774 6.6629 21.6774 12C21.6774 14.0903 21.0048 16.0258 19.8726 17.6081Z" fill="#959595"/>
</svg>
